<svg id="visual" viewBox="0 0 900 600" width="900" height="600" xmlns="http://www.w3.org/2000/svg" xmlns:xlink="http://www.w3.org/1999/xlink" version="1.1"><rect x="0" y="0" width="900" height="600" fill="#001220"></rect><defs><linearGradient id="grad1_0" x1="33.3%" y1="100%" x2="100%" y2="0%"><stop offset="20%" stop-color="#fbae3c" stop-opacity="1"></stop><stop offset="80%" stop-color="#fbae3c" stop-opacity="1"></stop></linearGradient></defs><defs><linearGradient id="grad1_1" x1="33.3%" y1="100%" x2="100%" y2="0%"><stop offset="20%" stop-color="#fbae3c" stop-opacity="1"></stop><stop offset="80%" stop-color="#f48350" stop-opacity="1"></stop></linearGradient></defs><defs><linearGradient id="grad1_2" x1="33.3%" y1="100%" x2="100%" y2="0%"><stop offset="20%" stop-color="#d96162" stop-opacity="1"></stop><stop offset="80%" stop-color="#f48350" stop-opacity="1"></stop></linearGradient></defs><defs><linearGradient id="grad1_3" x1="33.3%" y1="100%" x2="100%" y2="0%"><stop offset="20%" stop-color="#d96162" stop-opacity="1"></stop><stop offset="80%" stop-color="#af4b6d" stop-opacity="1"></stop></linearGradient></defs><defs><linearGradient id="grad1_4" x1="33.3%" y1="100%" x2="100%" y2="0%"><stop offset="20%" stop-color="#7c3e6b" stop-opacity="1"></stop><stop offset="80%" stop-color="#af4b6d" stop-opacity="1"></stop></linearGradient></defs><defs><linearGradient id="grad1_5" x1="33.3%" y1="100%" x2="100%" y2="0%"><stop offset="20%" stop-color="#7c3e6b" stop-opacity="1"></stop><stop offset="80%" stop-color="#49335c" stop-opacity="1"></stop></linearGradient></defs><defs><linearGradient id="grad1_6" x1="33.3%" y1="100%" x2="100%" y2="0%"><stop offset="20%" stop-color="#1d2540" stop-opacity="1"></stop><stop offset="80%" stop-color="#49335c" stop-opacity="1"></stop></linearGradient></defs><defs><linearGradient id="grad1_7" x1="33.3%" y1="100%" x2="100%" y2="0%"><stop offset="20%" stop-color="#1d2540" stop-opacity="1"></stop><stop offset="80%" stop-color="#001220" stop-opacity="1"></stop></linearGradient></defs><defs><linearGradient id="grad2_0" x1="0%" y1="100%" x2="66.7%" y2="0%"><stop offset="20%" stop-color="#fbae3c" stop-opacity="1"></stop><stop offset="80%" stop-color="#fbae3c" stop-opacity="1"></stop></linearGradient></defs><defs><linearGradient id="grad2_1" x1="0%" y1="100%" x2="66.7%" y2="0%"><stop offset="20%" stop-color="#f48350" stop-opacity="1"></stop><stop offset="80%" stop-color="#fbae3c" stop-opacity="1"></stop></linearGradient></defs><defs><linearGradient id="grad2_2" x1="0%" y1="100%" x2="66.7%" y2="0%"><stop offset="20%" stop-color="#f48350" stop-opacity="1"></stop><stop offset="80%" stop-color="#d96162" stop-opacity="1"></stop></linearGradient></defs><defs><linearGradient id="grad2_3" x1="0%" y1="100%" x2="66.7%" y2="0%"><stop offset="20%" stop-color="#af4b6d" stop-opacity="1"></stop><stop offset="80%" stop-color="#d96162" stop-opacity="1"></stop></linearGradient></defs><defs><linearGradient id="grad2_4" x1="0%" y1="100%" x2="66.7%" y2="0%"><stop offset="20%" stop-color="#af4b6d" stop-opacity="1"></stop><stop offset="80%" stop-color="#7c3e6b" stop-opacity="1"></stop></linearGradient></defs><defs><linearGradient id="grad2_5" x1="0%" y1="100%" x2="66.7%" y2="0%"><stop offset="20%" stop-color="#49335c" stop-opacity="1"></stop><stop offset="80%" stop-color="#7c3e6b" stop-opacity="1"></stop></linearGradient></defs><defs><linearGradient id="grad2_6" x1="0%" y1="100%" x2="66.7%" y2="0%"><stop offset="20%" stop-color="#49335c" stop-opacity="1"></stop><stop offset="80%" stop-color="#1d2540" stop-opacity="1"></stop></linearGradient></defs><defs><linearGradient id="grad2_7" x1="0%" y1="100%" x2="66.7%" y2="0%"><stop offset="20%" stop-color="#001220" stop-opacity="1"></stop><stop offset="80%" stop-color="#1d2540" stop-opacity="1"></stop></linearGradient></defs><g transform="translate(900, 600)"><path d="M-540.8 0C-420.5 -32.8 -300.2 -65.5 -270.2 -156C-240.2 -246.5 -300.4 -394.6 -270.4 -468.4C-240.4 -542.1 -120.2 -541.5 0 -540.8L0 0Z" fill="#0c1c30"></path><path d="M-473.2 0C-368 -28.7 -262.7 -57.3 -236.4 -136.5C-210.1 -215.7 -262.9 -345.3 -236.6 -409.8C-210.4 -474.4 -105.2 -473.8 0 -473.2L0 0Z" fill="#312c4f"></path><path d="M-405.6 0C-315.4 -24.6 -225.2 -49.2 -202.6 -117C-180.1 -184.8 -225.3 -296 -202.8 -351.3C-180.3 -406.6 -90.2 -406.1 0 -405.6L0 0Z" fill="#623965"></path><path d="M-338 0C-262.8 -20.5 -187.6 -41 -168.9 -97.5C-150.1 -154 -187.8 -246.6 -169 -292.7C-150.3 -338.8 -75.1 -338.4 0 -338L0 0Z" fill="#96446e"></path><path d="M-270.4 0C-210.3 -16.4 -150.1 -32.8 -135.1 -78C-120.1 -123.2 -150.2 -197.3 -135.2 -234.2C-120.2 -271.1 -60.1 -270.7 0 -270.4L0 0Z" fill="#c55469"></path><path d="M-202.8 0C-157.7 -12.3 -112.6 -24.6 -101.3 -58.5C-90.1 -92.4 -112.7 -148 -101.4 -175.6C-90.2 -203.3 -45.1 -203.1 0 -202.8L0 0Z" fill="#e9705a"></path><path d="M-135.2 0C-105.1 -8.2 -75.1 -16.4 -67.5 -39C-60 -61.6 -75.1 -98.7 -67.6 -117.1C-60.1 -135.5 -30.1 -135.4 0 -135.2L0 0Z" fill="#fa9845"></path><path d="M-67.6 0C-52.6 -4.1 -37.5 -8.2 -33.8 -19.5C-30 -30.8 -37.6 -49.3 -33.8 -58.5C-30.1 -67.8 -15 -67.7 0 -67.6L0 0Z" fill="#fbae3c"></path></g><g transform="translate(0, 0)"><path d="M540.8 0C543.9 124.4 546.9 248.7 468.4 270.4C389.8 292.1 229.7 211.1 138 239C46.3 267 23.2 403.9 0 540.8L0 0Z" fill="#0c1c30"></path><path d="M473.2 0C475.9 108.8 478.6 217.6 409.8 236.6C341.1 255.6 201 184.7 120.8 209.1C40.5 233.6 20.3 353.4 0 473.2L0 0Z" fill="#312c4f"></path><path d="M405.6 0C407.9 93.3 410.2 186.6 351.3 202.8C292.4 219.1 172.2 158.3 103.5 179.3C34.8 200.2 17.4 302.9 0 405.6L0 0Z" fill="#623965"></path><path d="M338 0C339.9 77.7 341.8 155.5 292.7 169C243.6 182.6 143.5 131.9 86.3 149.4C29 166.9 14.5 252.4 0 338L0 0Z" fill="#96446e"></path><path d="M270.4 0C271.9 62.2 273.5 124.4 234.2 135.2C194.9 146 114.8 105.5 69 119.5C23.2 133.5 11.6 202 0 270.4L0 0Z" fill="#c55469"></path><path d="M202.8 0C204 46.6 205.1 93.3 175.6 101.4C146.2 109.5 86.1 79.2 51.8 89.6C17.4 100.1 8.7 151.5 0 202.8L0 0Z" fill="#e9705a"></path><path d="M135.2 0C136 31.1 136.7 62.2 117.1 67.6C97.5 73 57.4 52.8 34.5 59.8C11.6 66.7 5.8 101 0 135.2L0 0Z" fill="#fa9845"></path><path d="M67.6 0C68 15.5 68.4 31.1 58.5 33.8C48.7 36.5 28.7 26.4 17.3 29.9C5.8 33.4 2.9 50.5 0 67.6L0 0Z" fill="#fbae3c"></path></g></svg>