<svg id="visual" viewBox="0 0 900 600" width="900" height="600" xmlns="http://www.w3.org/2000/svg" xmlns:xlink="http://www.w3.org/1999/xlink" version="1.1"><rect x="0" y="0" width="900" height="600" fill="#fff"></rect><defs><linearGradient id="grad1_0" x1="33.3%" y1="100%" x2="100%" y2="0%"><stop offset="20%" stop-color="#2d3cc2" stop-opacity="1"></stop><stop offset="80%" stop-color="#2d3cc2" stop-opacity="1"></stop></linearGradient></defs><defs><linearGradient id="grad1_1" x1="33.3%" y1="100%" x2="100%" y2="0%"><stop offset="20%" stop-color="#2d3cc2" stop-opacity="1"></stop><stop offset="80%" stop-color="#5a55cb" stop-opacity="1"></stop></linearGradient></defs><defs><linearGradient id="grad1_2" x1="33.3%" y1="100%" x2="100%" y2="0%"><stop offset="20%" stop-color="#7b6fd5" stop-opacity="1"></stop><stop offset="80%" stop-color="#5a55cb" stop-opacity="1"></stop></linearGradient></defs><defs><linearGradient id="grad1_3" x1="33.3%" y1="100%" x2="100%" y2="0%"><stop offset="20%" stop-color="#7b6fd5" stop-opacity="1"></stop><stop offset="80%" stop-color="#988bde" stop-opacity="1"></stop></linearGradient></defs><defs><linearGradient id="grad1_4" x1="33.3%" y1="100%" x2="100%" y2="0%"><stop offset="20%" stop-color="#b3a7e6" stop-opacity="1"></stop><stop offset="80%" stop-color="#988bde" stop-opacity="1"></stop></linearGradient></defs><defs><linearGradient id="grad1_5" x1="33.3%" y1="100%" x2="100%" y2="0%"><stop offset="20%" stop-color="#b3a7e6" stop-opacity="1"></stop><stop offset="80%" stop-color="#cdc3ef" stop-opacity="1"></stop></linearGradient></defs><defs><linearGradient id="grad1_6" x1="33.3%" y1="100%" x2="100%" y2="0%"><stop offset="20%" stop-color="#e6e1f7" stop-opacity="1"></stop><stop offset="80%" stop-color="#cdc3ef" stop-opacity="1"></stop></linearGradient></defs><defs><linearGradient id="grad1_7" x1="33.3%" y1="100%" x2="100%" y2="0%"><stop offset="20%" stop-color="#e6e1f7" stop-opacity="1"></stop><stop offset="80%" stop-color="#ffffff" stop-opacity="1"></stop></linearGradient></defs><defs><linearGradient id="grad2_0" x1="0%" y1="100%" x2="66.7%" y2="0%"><stop offset="20%" stop-color="#2d3cc2" stop-opacity="1"></stop><stop offset="80%" stop-color="#2d3cc2" stop-opacity="1"></stop></linearGradient></defs><defs><linearGradient id="grad2_1" x1="0%" y1="100%" x2="66.7%" y2="0%"><stop offset="20%" stop-color="#5a55cb" stop-opacity="1"></stop><stop offset="80%" stop-color="#2d3cc2" stop-opacity="1"></stop></linearGradient></defs><defs><linearGradient id="grad2_2" x1="0%" y1="100%" x2="66.7%" y2="0%"><stop offset="20%" stop-color="#5a55cb" stop-opacity="1"></stop><stop offset="80%" stop-color="#7b6fd5" stop-opacity="1"></stop></linearGradient></defs><defs><linearGradient id="grad2_3" x1="0%" y1="100%" x2="66.7%" y2="0%"><stop offset="20%" stop-color="#988bde" stop-opacity="1"></stop><stop offset="80%" stop-color="#7b6fd5" stop-opacity="1"></stop></linearGradient></defs><defs><linearGradient id="grad2_4" x1="0%" y1="100%" x2="66.7%" y2="0%"><stop offset="20%" stop-color="#988bde" stop-opacity="1"></stop><stop offset="80%" stop-color="#b3a7e6" stop-opacity="1"></stop></linearGradient></defs><defs><linearGradient id="grad2_5" x1="0%" y1="100%" x2="66.7%" y2="0%"><stop offset="20%" stop-color="#cdc3ef" stop-opacity="1"></stop><stop offset="80%" stop-color="#b3a7e6" stop-opacity="1"></stop></linearGradient></defs><defs><linearGradient id="grad2_6" x1="0%" y1="100%" x2="66.7%" y2="0%"><stop offset="20%" stop-color="#cdc3ef" stop-opacity="1"></stop><stop offset="80%" stop-color="#e6e1f7" stop-opacity="1"></stop></linearGradient></defs><defs><linearGradient id="grad2_7" x1="0%" y1="100%" x2="66.7%" y2="0%"><stop offset="20%" stop-color="#ffffff" stop-opacity="1"></stop><stop offset="80%" stop-color="#e6e1f7" stop-opacity="1"></stop></linearGradient></defs><g transform="translate(900, 600)"><path d="M-516 0C-479.6 -72.2 -443.2 -144.5 -407.9 -235.5C-372.5 -326.5 -338.2 -436.3 -270.4 -468.4C-202.6 -500.4 -101.3 -454.7 0 -409L0 0Z" fill="#f3f0fb"></path><path d="M-451.5 0C-419.7 -63.2 -387.8 -126.4 -356.9 -206.1C-326 -285.7 -295.9 -381.8 -236.6 -409.8C-177.3 -437.9 -88.6 -397.9 0 -357.9L0 0Z" fill="#dad2f3"></path><path d="M-387 0C-359.7 -54.2 -332.4 -108.4 -305.9 -176.6C-279.4 -244.9 -253.7 -327.2 -202.8 -351.3C-152 -375.3 -76 -341 0 -306.7L0 0Z" fill="#c0b5eb"></path><path d="M-322.5 0C-299.8 -45.1 -277 -90.3 -254.9 -147.2C-232.8 -204.1 -211.4 -272.7 -169 -292.7C-126.6 -312.8 -63.3 -284.2 0 -255.6L0 0Z" fill="#a698e2"></path><path d="M-258 0C-239.8 -36.1 -221.6 -72.2 -203.9 -117.8C-186.3 -163.3 -169.1 -218.2 -135.2 -234.2C-101.3 -250.2 -50.7 -227.4 0 -204.5L0 0Z" fill="#8a7dd9"></path><path d="M-193.5 0C-179.9 -27.1 -166.2 -54.2 -153 -88.3C-139.7 -122.4 -126.8 -163.6 -101.4 -175.6C-76 -187.7 -38 -170.5 0 -153.4L0 0Z" fill="#6c62d0"></path><path d="M-129 0C-119.9 -18.1 -110.8 -36.1 -102 -58.9C-93.1 -81.6 -84.6 -109.1 -67.6 -117.1C-50.7 -125.1 -25.3 -113.7 0 -102.2L0 0Z" fill="#4748c7"></path><path d="M-64.5 0C-60 -9 -55.4 -18.1 -51 -29.4C-46.6 -40.8 -42.3 -54.5 -33.8 -58.5C-25.3 -62.6 -12.7 -56.8 0 -51.1L0 0Z" fill="#2d3cc2"></path></g><g transform="translate(0, 0)"><path d="M540.8 0C500.2 84.7 459.5 169.4 405.3 234C351.1 298.6 283.3 343 213.5 369.8C143.7 396.6 71.8 405.8 0 415L0 0Z" fill="#f3f0fb"></path><path d="M473.2 0C437.7 74.1 402.1 148.3 354.6 204.7C307.2 261.2 247.9 300.1 186.8 323.6C125.7 347 62.9 355.1 0 363.1L0 0Z" fill="#dad2f3"></path><path d="M405.6 0C375.1 63.5 344.6 127.1 304 175.5C263.3 223.9 212.5 257.2 160.1 277.3C107.8 297.5 53.9 304.4 0 311.3L0 0Z" fill="#c0b5eb"></path><path d="M338 0C312.6 52.9 287.2 105.9 253.3 146.2C219.4 186.6 177.1 214.4 133.4 231.1C89.8 247.9 44.9 253.6 0 259.4L0 0Z" fill="#a698e2"></path><path d="M270.4 0C250.1 42.4 229.8 84.7 202.6 117C175.5 149.3 141.7 171.5 106.8 184.9C71.8 198.3 35.9 202.9 0 207.5L0 0Z" fill="#8a7dd9"></path><path d="M202.8 0C187.6 31.8 172.3 63.5 152 87.7C131.7 112 106.2 128.6 80.1 138.7C53.9 148.7 26.9 152.2 0 155.6L0 0Z" fill="#6c62d0"></path><path d="M135.2 0C125 21.2 114.9 42.4 101.3 58.5C87.8 74.6 70.8 85.7 53.4 92.4C35.9 99.2 18 101.5 0 103.8L0 0Z" fill="#4748c7"></path><path d="M67.6 0C62.5 10.6 57.4 21.2 50.7 29.2C43.9 37.3 35.4 42.9 26.7 46.2C18 49.6 9 50.7 0 51.9L0 0Z" fill="#2d3cc2"></path></g></svg>